<svg xmlns="http://www.w3.org/2000/svg" xmlns:xlink="http://www.w3.org/1999/xlink" width="100" zoomAndPan="magnify" viewBox="0 0 75 74.999997" height="100" preserveAspectRatio="xMidYMid meet" version="1.0"><defs><clipPath id="208c92c5f7"><path d="M 2.578125 9.5625 L 72.328125 9.5625 L 72.328125 65.0625 L 2.578125 65.0625 Z M 2.578125 9.5625 " clip-rule="nonzero"/></clipPath></defs><rect x="-7.5" width="90" fill="#ffffff" y="-7.5" height="89.999996" fill-opacity="1"/><rect x="-7.5" width="90" fill="#ffffff" y="-7.5" height="89.999996" fill-opacity="1"/><g clip-path="url(#208c92c5f7)"><path fill="#ff3131" d="M 68.917969 13.054688 C 68.917969 13.054688 58.445312 9.5625 37.496094 9.5625 C 16.546875 9.5625 6.074219 13.054688 6.074219 13.054688 C 6.074219 13.054688 2.582031 23.53125 2.582031 37.496094 C 2.582031 51.460938 6.074219 61.933594 6.074219 61.933594 C 6.074219 61.933594 16.546875 65.425781 37.496094 65.425781 C 58.445312 65.425781 68.917969 61.933594 68.917969 61.933594 C 68.917969 61.933594 72.410156 51.460938 72.410156 37.496094 C 72.410156 23.53125 68.917969 13.054688 68.917969 13.054688 Z M 30.511719 49.589844 L 30.511719 25.402344 L 51.460938 37.496094 Z M 30.511719 49.589844 " fill-opacity="1" fill-rule="nonzero"/></g></svg>